<svg xmlns="http://www.w3.org/2000/svg" style="enable-background:new 0 0 512 512" xml:space="preserve" width="512" height="512"><path style="fill:#444" d="M256 0c141.4 0 256 114.6 256 256S397.4 512 256 512 0 397.4 0 256 114.6 0 256 0z" data-original="#FAD55C" class="active-path" data-old_color="#333333"/><path style="fill:#333" d="M510.8 280.4C498.5 410.4 389.1 512 256 512c-9.2 0-18.4-.5-27.3-1.5l-96.1-96.1L379.5 149l131.3 131.4z" data-original="#E3C04D" data-old_color="#444444"/><path style="fill:#f8f8f8" data-original="#F8F8F8" d="M132.6 97.6H328l51.4 51.5v265.3H132.6z"/><path style="fill:#ff8c8a" data-original="#FF8C8A" d="M132.6 97.6H328l51.4 51.5v24.7H132.6z"/><path style="fill:#ebecec" data-original="#EBECEC" d="M328 97.6v51.5h51.4z"/><path style="fill:#f8f8f8" d="M150.2 158.6v-44.7h14.5c5.5 0 9.1.2 10.7.7 2.6.7 4.7 2.1 6.4 4.4 1.7 2.2 2.6 5.2 2.6 8.7 0 2.7-.5 5-1.5 6.9s-2.3 3.3-3.8 4.4c-1.5 1.1-3.1 1.8-4.7 2.1-2.2.4-5.3.6-9.4.6h-5.9v16.9h-8.9zm9.1-37.2v12.7h4.9c3.6 0 5.9-.2 7.1-.7 1.2-.5 2.1-1.2 2.8-2.2s1-2.2 1-3.5c0-1.6-.5-3-1.4-4-1-1.1-2.2-1.7-3.6-2-1.1-.2-3.2-.3-6.5-.3h-4.3zm32.6-7.6h16.5c3.7 0 6.5.3 8.5.9 2.6.8 4.9 2.1 6.7 4.1 1.9 2 3.3 4.4 4.3 7.3 1 2.9 1.5 6.4 1.5 10.6 0 3.7-.5 6.8-1.4 9.5-1.1 3.3-2.7 5.9-4.8 7.9-1.6 1.5-3.7 2.7-6.3 3.6-2 .6-4.6 1-8 1h-17v-44.9zm9.1 7.6V151h6.7c2.5 0 4.3-.1 5.4-.4 1.5-.4 2.7-1 3.6-1.9 1-.9 1.8-2.3 2.4-4.3.6-2 .9-4.7.9-8.2s-.3-6.1-.9-8c-.6-1.9-1.5-3.3-2.5-4.3-1.1-1-2.5-1.7-4.2-2.1-1.3-.3-3.7-.4-7.4-.4h-4zm36 37.2v-44.7h30.7v7.6H246V132h18.7v7.6H246v19h-9z" data-original="#F8F8F8"/><path style="fill:#fa7876" d="M335.5 325.5c5.5.1 13.9.1 18.1 3.8l3.5 3.7c2-2.5 2.4-7.2-.6-10.2-10.3-10.4-48.1-4.4-61.5-3-1.5.1-3.3-1.5-4.4-2.3-4.9-3.1-13-10.4-16.8-14.8l-7.8-9.8c-5.9-8.1-10.9-17.8-14.7-27.4-1.2-2.9-.9-2.5-.2-5.6.4-1.9.8-3.9 1.1-5.9 1.5-8.1 2.5-17.1 2.1-25.6-1.7-.3-1.3.6-1.7 2l-5.3 17.2c-.2.5-.3.9-.5 1.4-.1.2-.2.5-.2.7l-.4.6c-.9-1.9-1.9-7.1-2.4-9.5-2.1-9.7-3.5-22.1-2.9-32 .4-6.7 2.8-17.4 8.3-8.1 1.5 2.4 2.7 5 3.9 7.8l3.1 8.6c.9-3.5 1-7 .3-10.6-1.1-5.2-2.5-5.8-3.8-7.9-.8-.4-1.1-1-2-1.6-.7-.5-1.4-.8-2.2-1.3-4.5-1.4-5.3-1.9-10.2-.7l-1.8.9-1.2.9c-.3.3 0 .1-.5.3-.3.6-.9.9-1.9 2.7-1.9 3.4-2.2 7.4-2.3 11.3-.5 16.7 4 38.7 9.1 54.4.5 1.5-.1 2.1-.6 3.5-2.1 5.2-4.6 10.6-6.8 15.7-5.1 11.9-17.8 36.7-24.2 48.2-4.3 7.7-8.2 15.9-12.6 23.5-2.3 3.9-4.8 7.6-7.3 11-1.9 2.6-10.1 12.8-12.4 14.8-1.6 1.3-2.9 3-4.5 4.4-.9.8-1.4 1.5-2.4 2.3-.8.7-1.5 1.4-2.4 2.1-1 .8-3.8 3.8-5.4 2.7-3.1-3.2 12.3-23 16-26.6l12.7-13.1c-5.3 1.8-11.8 5.8-15.8 8.6-6.3 4.5-20.4 18.9-21.1 27.2-.7 8.6 12.7 13.4 23.2 6.5 1-.6 2.8-2 3.4-2.7 5.6-6 8.5-10.1 13.2-17 5.8-8.6 11-17.1 16.3-26.1.8-1.4 2-1.6 3.5-2.3 21.8-10.7 51.8-17.4 76.5-20.3 2-.2 2.6.6 4.2 1.5 1.4.8 2.5 1.4 3.9 2.2 7.3 3.9 17.3 8.3 25.4 10.7 11.4 3.3 33.1 7.5 34.2-7.6l-1.2 1c-5.4 4.2-19.7.9-25.2-.7-4.5-1.3-19.9-6.3-23.2-8.5 9.4-.7 19.4-1.1 28.4-1zm-72.2 0c-13.2 3-28.9 7.2-41.2 12.6-2.2 1-5.3 2.7-7.2 3.3.4-1.1 1.4-2.7 2.1-3.8 4.2-7 19-34.9 21.8-41.2 1.2-2.7 2.3-5.2 3.5-8 1.1-2.7 2-5.6 3.2-8.3 1 1.4 2.4 4.8 3.3 6.4 3.7 7 7.2 11.3 12 17 1.5 1.8 3.2 3.5 4.7 5.1l10.2 9c1.6 1.3 4.1 2.8 5.5 4.1l-17.9 3.8z" data-original="#FA7876"/></svg>